<svg width="24" height="24" viewBox="0 0 24 24" fill="none" xmlns="http://www.w3.org/2000/svg">
<path d="M10.4453 2.14645C10.6405 1.95118 10.9571 1.95118 11.1524 2.14645C11.3476 2.34171 11.3476 2.65829 11.1524 2.85355L1.85393 12.152C1.65866 12.3473 1.34208 12.3473 1.14682 12.152C0.951558 11.9567 0.951558 11.6402 1.14682 11.4449L10.4453 2.14645Z" fill="white"/>
<path d="M1.14663 12.1464C0.951372 11.9512 0.951371 11.6346 1.14663 11.4393C1.3419 11.2441 1.65848 11.2441 1.85374 11.4393L11.1522 20.7378C11.3475 20.9331 11.3475 21.2496 11.1522 21.4449C10.9569 21.6402 10.6403 21.6402 10.4451 21.4449L1.14663 12.1464Z" fill="white"/>
<path d="M1 11.7929C1 11.5168 1.22386 11.2929 1.5 11.2929H21.5C21.7761 11.2929 22 11.5168 22 11.7929C22 12.069 21.7761 12.2929 21.5 12.2929H1.5C1.22386 12.2929 1 12.069 1 11.7929Z" fill="white"/>
</svg>
