<svg width="32" height="32" viewBox="0 0 32 32" fill="none" xmlns="http://www.w3.org/2000/svg">
<rect width="32" height="32" rx="16" fill="black" fill-opacity="0.5"/>
<path fill-rule="evenodd" clip-rule="evenodd" d="M15.9986 9.97635C12.3174 9.97635 9.33325 12.9605 9.33325 16.6417C9.33325 20.3228 12.3174 23.307 15.9986 23.307C19.6797 23.307 22.6639 20.3228 22.6639 16.6417C22.6639 16.2965 22.9437 16.0167 23.2889 16.0167C23.6341 16.0167 23.9139 16.2965 23.9139 16.6417C23.9139 21.0132 20.3701 24.557 15.9986 24.557C11.6271 24.557 8.08325 21.0132 8.08325 16.6417C8.08325 12.2702 11.6271 8.72635 15.9986 8.72635C16.3438 8.72635 16.6236 9.00617 16.6236 9.35135C16.6236 9.69653 16.3438 9.97635 15.9986 9.97635Z" fill="white"/>
<path fill-rule="evenodd" clip-rule="evenodd" d="M14.4561 6.39107C14.7002 6.14699 15.0959 6.14699 15.34 6.39107L18.2401 9.29113L15.34 12.1912C15.0959 12.4353 14.7002 12.4353 14.4561 12.1912C14.212 11.9471 14.212 11.5514 14.4561 11.3073L16.4723 9.29113L14.4561 7.27495C14.212 7.03087 14.212 6.63514 14.4561 6.39107Z" fill="white"/>
</svg>
