<svg width="8" height="18" viewBox="0 0 8 18" fill="none" xmlns="http://www.w3.org/2000/svg">
<path d="M7.48796 15.9919C7.45712 16.1897 7.34411 16.3983 7.21056 16.5521C6.39903 17.4418 5.42304 17.969 4.25194 17.991C3.72798 18.002 3.18355 18.0239 2.68013 17.9031C1.34464 17.6065 0.58443 16.3873 0.800204 14.9595C1.057 13.235 1.34464 11.5326 1.62204 9.81915C1.70426 9.30287 1.80697 8.78666 1.8686 8.27038C1.89944 8.08367 1.8789 7.875 1.84806 7.6993C1.78643 7.34783 1.6221 7.19403 1.30362 7.1391C1.12899 7.11713 0.954295 7.12808 0.789963 7.08422C0.584489 7.01834 0.348232 6.94143 0.183842 6.80966C-0.103798 6.57896 -0.0421136 6.1287 0.286609 5.9749C0.450941 5.88698 0.656413 5.84312 0.841345 5.84312C1.57077 5.83211 2.31039 5.84312 3.02951 5.84312H5.21768C5.74164 5.84312 6.00874 6.12869 6.08066 6.68883C6.15253 7.24903 5.9676 7.77626 5.87519 8.3145C5.60809 9.92909 5.32039 11.5327 5.05335 13.1363C4.96088 13.6855 4.86836 14.2347 4.78625 14.7949C4.76571 14.9597 4.77595 15.1463 4.78625 15.3112C4.87866 16.025 5.25877 16.2887 5.89573 16.1129C6.0909 16.0581 6.26559 15.9372 6.45053 15.8384C6.62516 15.7505 6.79979 15.6297 6.98466 15.5528C7.30297 15.4208 7.55983 15.6405 7.48796 15.9919Z" fill="white"/>
<path d="M6.75011 2.25004C6.75011 3.4927 5.74273 4.50007 4.50007 4.50007C3.25741 4.50007 2.25004 3.4927 2.25004 2.25004C2.25004 1.00738 3.25741 0 4.50007 0C5.74273 0 6.75011 1.00738 6.75011 2.25004Z" fill="white"/>
</svg>
