<svg width="40" height="40" viewBox="0 0 40 40" fill="none" xmlns="http://www.w3.org/2000/svg">
<rect width="40" height="40" rx="20" fill="black" fill-opacity="0.5"/>
<path d="M23.488 26.9919C23.4571 27.1897 23.3441 27.3983 23.2106 27.5521C22.399 28.4418 21.423 28.969 20.2519 28.991C19.728 29.002 19.1835 29.0239 18.6801 28.9031C17.3446 28.6065 16.5844 27.3873 16.8002 25.9595C17.057 24.235 17.3446 22.5326 17.622 20.8191C17.7043 20.3029 17.807 19.7867 17.8686 19.2704C17.8994 19.0837 17.8789 18.875 17.8481 18.6993C17.7864 18.3478 17.6221 18.194 17.3036 18.1391C17.129 18.1171 16.9543 18.1281 16.79 18.0842C16.5845 18.0183 16.3482 17.9414 16.1838 17.8097C15.8962 17.579 15.9579 17.1287 16.2866 16.9749C16.4509 16.887 16.6564 16.8431 16.8413 16.8431C17.5708 16.8321 18.3104 16.8431 19.0295 16.8431H21.2177C21.7416 16.8431 22.0087 17.1287 22.0807 17.6888C22.1525 18.249 21.9676 18.7763 21.8752 19.3145C21.6081 20.9291 21.3204 22.5327 21.0534 24.1363C20.9609 24.6855 20.8684 25.2347 20.7863 25.7949C20.7657 25.9597 20.776 26.1463 20.7863 26.3112C20.8787 27.025 21.2588 27.2887 21.8957 27.1129C22.0909 27.0581 22.2656 26.9372 22.4505 26.8384C22.6252 26.7505 22.7998 26.6297 22.9847 26.5528C23.303 26.4208 23.5598 26.6405 23.488 26.9919Z" fill="white"/>
<path d="M22.7501 13.25C22.7501 14.4927 21.7427 15.5001 20.5001 15.5001C19.2574 15.5001 18.25 14.4927 18.25 13.25C18.25 12.0074 19.2574 11 20.5001 11C21.7427 11 22.7501 12.0074 22.7501 13.25Z" fill="white"/>
</svg>
