<svg width="20" height="20" viewBox="0 0 20 20" fill="none" xmlns="http://www.w3.org/2000/svg">
<path fill-rule="evenodd" clip-rule="evenodd" d="M9.34341 16.9048C9.35561 16.9156 9.36748 16.9268 9.37902 16.9384C9.43622 16.9956 9.50602 17.0688 9.56559 17.1313C9.59724 17.1645 9.626 17.1947 9.64845 17.2178C9.72985 17.3017 9.79469 17.3639 9.85369 17.412C9.91186 17.4594 9.94983 17.4808 9.97136 17.4903C9.9886 17.4978 9.99382 17.497 9.99382 17.497C9.99551 17.497 10.0492 17.4974 10.1854 17.3941C10.3041 17.304 10.4095 17.1974 10.551 17.0542C10.5867 17.018 10.6248 16.9795 10.666 16.9384L15.9409 11.6635C16.0452 11.5591 16.1475 11.4579 16.2474 11.3589C17.0845 10.53 17.7582 9.86284 18.0977 8.92914L18.0998 8.92331C18.8468 6.91601 17.7278 4.57503 15.6745 3.8058C14.5753 3.42636 13.2456 3.53172 12.279 4.1243C11.788 4.45393 11.3675 4.8806 10.8913 5.36382C10.7914 5.46518 10.689 5.56903 10.5831 5.675C10.2576 6.00043 9.73001 6.00043 9.40457 5.675C9.28249 5.55292 9.16741 5.43546 9.05718 5.32295C8.48188 4.73576 8.03887 4.28359 7.42371 4.01446C7.40663 4.00698 7.3898 3.99894 7.37326 3.99034C6.21782 3.38951 4.75429 3.47339 3.61252 4.187L3.60235 4.19325C1.79966 5.28436 1.13872 7.66157 2.12321 9.49951L2.12375 9.50043L2.12935 9.50953C2.13438 9.5175 2.14134 9.52812 2.1506 9.54161C2.16935 9.56891 2.19457 9.60365 2.22723 9.64636C2.29287 9.73218 2.37997 9.83896 2.48844 9.966C2.70524 10.2199 2.99118 10.5358 3.32722 10.8953C3.99843 11.6134 4.84961 12.4842 5.70359 13.3418C7.41985 15.0652 9.10763 16.6952 9.34341 16.9048ZM1.39344 9.90196C0.189383 7.66586 0.992086 4.79906 3.17085 3.48034C4.54691 2.6203 6.32433 2.50563 7.75772 3.25099C8.41291 3.53764 8.92187 3.99975 9.40992 4.49114C9.49999 4.58182 9.58935 4.6735 9.67878 4.76526C9.78327 4.87247 9.88787 4.97979 9.99382 5.08574C10.0888 4.99072 10.1839 4.89408 10.2795 4.79695C10.3788 4.69592 10.4788 4.59431 10.5799 4.4933C10.9681 4.10552 11.3732 3.72658 11.8286 3.423C13.0326 2.67763 14.638 2.56296 15.9568 3.02165C18.4222 3.93902 19.7983 6.74848 18.8809 9.21393C18.4732 10.3351 17.6579 11.1391 16.8375 11.9482C16.7348 12.0494 16.6321 12.1507 16.5301 12.2527L11.2552 17.5276C11.2244 17.5584 11.1932 17.5901 11.1615 17.6223C10.8385 17.95 10.4637 18.3303 9.99382 18.3303C9.55627 18.3303 9.24239 18.0005 8.94732 17.6905C8.8944 17.6349 8.84208 17.5799 8.78977 17.5276C8.27375 17.0689 1.9668 10.934 1.39344 9.90196Z" fill="white"/>
</svg>
