<svg width="20" height="20" viewBox="0 0 20 20" fill="none" xmlns="http://www.w3.org/2000/svg">
<path fill-rule="evenodd" clip-rule="evenodd" d="M9.99358 18.3303C9.47756 18.3303 9.13354 17.8716 8.78953 17.5276C8.2735 17.0689 1.96655 10.934 1.39319 9.90196C0.189139 7.66586 0.991842 4.79906 3.17061 3.48034C4.54667 2.6203 6.32408 2.50563 7.75748 3.25099C8.67485 3.65234 9.30555 4.39771 9.99358 5.08574C10.5669 4.51238 11.1403 3.88169 11.8283 3.423C13.0324 2.67763 14.6378 2.56296 15.9565 3.02165C18.422 3.93902 19.798 6.74848 18.8806 9.21393C18.422 10.4753 17.4472 11.3354 16.5299 12.2527C15.3258 13.4568 11.771 17.0116 11.255 17.5276C10.911 17.8716 10.5096 18.3303 9.99358 18.3303Z" fill="white"/>
</svg>
