<svg width="16" height="19" viewBox="0 0 16 19" fill="none" xmlns="http://www.w3.org/2000/svg">
<path fill-rule="evenodd" clip-rule="evenodd" d="M7.99858 3.97635C4.31742 3.97635 1.33325 6.96052 1.33325 10.6417C1.33325 14.3228 4.31742 17.307 7.99858 17.307C11.6797 17.307 14.6639 14.3228 14.6639 10.6417C14.6639 10.2965 14.9437 10.0167 15.2889 10.0167C15.6341 10.0167 15.9139 10.2965 15.9139 10.6417C15.9139 15.0132 12.3701 18.557 7.99858 18.557C3.62707 18.557 0.083252 15.0132 0.083252 10.6417C0.083252 6.27017 3.62707 2.72635 7.99858 2.72635C8.34376 2.72635 8.62358 3.00617 8.62358 3.35135C8.62358 3.69653 8.34376 3.97635 7.99858 3.97635Z" fill="white"/>
<path fill-rule="evenodd" clip-rule="evenodd" d="M6.45612 0.391066C6.7002 0.146988 7.09593 0.146988 7.34001 0.391066L10.2401 3.29113L7.34001 6.1912C7.09593 6.43527 6.7002 6.43527 6.45612 6.1912C6.21205 5.94712 6.21205 5.55139 6.45612 5.30731L8.47231 3.29113L6.45612 1.27495C6.21205 1.03087 6.21205 0.635144 6.45612 0.391066Z" fill="white"/>
</svg>
