<svg width="20" height="15" viewBox="0 0 20 15" fill="none" xmlns="http://www.w3.org/2000/svg">
<path d="M0 1.23047C0 0.678184 0.447715 0.230469 1 0.230469H19C19.5523 0.230469 20 0.678184 20 1.23047C20 1.78275 19.5523 2.23047 19 2.23047H1C0.447716 2.23047 0 1.78275 0 1.23047Z" fill="#4E5357"/>
<path d="M3 7.23047C3 6.67818 3.44772 6.23047 4 6.23047H17C17.5523 6.23047 18 6.67818 18 7.23047C18 7.78275 17.5523 8.23047 17 8.23047H4C3.44772 8.23047 3 7.78275 3 7.23047Z" fill="#4E5357"/>
<path d="M6 12.2305C5.44772 12.2305 5 12.6782 5 13.2305C5 13.7828 5.44772 14.2305 6 14.2305H15C15.5523 14.2305 16 13.7828 16 13.2305C16 12.6782 15.5523 12.2305 15 12.2305H6Z" fill="#4E5357"/>
</svg>
