<svg width="19" height="20" viewBox="0 0 19 20" fill="none" xmlns="http://www.w3.org/2000/svg">
<path fill-rule="evenodd" clip-rule="evenodd" d="M13.0212 14.4588C11.6484 15.5669 9.90167 16.2305 8 16.2305C3.58172 16.2305 0 12.6487 0 8.23047C0 3.81219 3.58172 0.230469 8 0.230469C12.4183 0.230469 16 3.81219 16 8.23047C16 10.3869 15.1468 12.3441 13.7595 13.7828L18.3536 18.3768C18.5489 18.5721 18.5489 18.8886 18.3536 19.0839C18.1584 19.2792 17.8418 19.2792 17.6465 19.0839L13.0212 14.4588ZM15 8.23047C15 12.0965 11.866 15.2305 8 15.2305C4.13401 15.2305 1 12.0965 1 8.23047C1 4.36448 4.13401 1.23047 8 1.23047C11.866 1.23047 15 4.36448 15 8.23047Z" fill="#21272A"/>
</svg>
