<svg width="41" height="40" viewBox="0 0 41 40" fill="none" xmlns="http://www.w3.org/2000/svg">
<path fill-rule="evenodd" clip-rule="evenodd" d="M40.334 20C40.334 31.0462 31.3802 40 20.334 40C9.28773 40 0.333984 31.0462 0.333984 20C0.333984 8.95375 9.28648 0 20.334 0C31.3815 0 40.334 8.9525 40.334 20ZM20.334 2.37125C10.6002 2.37125 2.70523 10.2625 2.70523 20C2.70523 29.7375 10.5965 37.6287 20.334 37.6287C30.0715 37.6287 37.9627 29.7375 37.9627 20C37.9627 10.2625 30.0677 2.37125 20.334 2.37125ZM13.5527 13.7812C12.4277 13.7812 11.5177 14.6912 11.5177 15.8162C11.5177 16.9412 12.4277 17.8512 13.5527 17.8512C14.6777 17.8512 15.5877 16.9412 15.5877 15.8162C15.5877 14.6912 14.6777 13.7812 13.5527 13.7812ZM27.1152 13.7812C25.9902 13.7812 25.0802 14.6912 25.0802 15.8162C25.0802 16.9412 25.9902 17.8512 27.1152 17.8512C28.2402 17.8512 29.1502 16.9412 29.1502 15.8162C29.1502 14.6912 28.2365 13.7812 27.1152 13.7812Z" fill="#0079C8"/>
<path fill-rule="evenodd" clip-rule="evenodd" d="M9.50253 23.0475C9.83249 22.7946 10.2698 22.7305 10.6584 22.8781C13.539 23.9719 16.827 24.5952 20.326 24.5952C23.7919 24.5952 27.051 23.9836 29.912 22.9089C30.301 22.7628 30.7379 22.8283 31.0669 23.0821C31.3959 23.3358 31.5702 23.7418 31.5277 24.1551C30.9088 30.1706 26.1862 34.9952 20.2849 34.9952C14.3719 34.9952 9.64251 30.1518 9.03841 24.1195C8.99699 23.7059 9.17258 23.3003 9.50253 23.0475ZM11.7953 25.7905C12.958 29.7881 16.3741 32.5952 20.2849 32.5952C24.187 32.5952 27.5965 29.8006 28.7666 25.8169C26.1482 26.5787 23.3001 26.9952 20.326 26.9952C17.3178 26.9952 14.4385 26.5691 11.7953 25.7905Z" fill="#0079C8"/>
</svg>
