<svg width="41" height="40" viewBox="0 0 41 40" fill="none" xmlns="http://www.w3.org/2000/svg">
<path fill-rule="evenodd" clip-rule="evenodd" d="M10.347 30.516L10.3432 30.5172C9.73324 30.2597 9.47574 29.5285 9.78824 28.951C10.3595 27.896 11.062 26.9547 11.8982 26.1185C13.0157 25.001 14.3245 24.1222 15.832 23.4772C17.3395 22.8322 18.9457 22.5122 20.6445 22.5122C22.372 22.5122 23.9807 22.8322 25.4732 23.4772C26.9695 24.1222 28.282 25.001 29.4107 26.1185C30.2545 26.9497 30.962 27.891 31.5357 28.9422C31.852 29.5235 31.5907 30.2547 30.9807 30.5122L30.9732 30.516C30.442 30.7422 29.8332 30.5197 29.5595 30.0122C29.0945 29.1522 28.517 28.3835 27.8295 27.7035C26.9045 26.7935 25.8295 26.0722 24.6032 25.536C23.377 24.9997 22.0607 24.7347 20.6507 24.7347C19.2645 24.7347 17.9507 25.001 16.7132 25.536C15.4757 26.071 14.397 26.7935 13.487 27.7035C12.807 28.3835 12.2332 29.1522 11.7645 30.016C11.487 30.5235 10.8782 30.7422 10.347 30.516ZM40.667 20C40.667 31.0462 31.7132 40 20.667 40C9.62074 40 0.666992 31.0462 0.666992 20C0.666992 8.95375 9.61949 0 20.667 0C31.7145 0 40.667 8.9525 40.667 20ZM20.667 2.37125C10.9332 2.37125 3.03824 10.2625 3.03824 20C3.03824 29.7375 10.9295 37.6287 20.667 37.6287C30.4045 37.6287 38.2957 29.7375 38.2957 20C38.2957 10.2625 30.4007 2.37125 20.667 2.37125ZM13.8857 13.7812C12.7607 13.7812 11.8507 14.6912 11.8507 15.8162C11.8507 16.9412 12.7607 17.8512 13.8857 17.8512C15.0107 17.8512 15.9207 16.9412 15.9207 15.8162C15.9207 14.6912 15.0107 13.7812 13.8857 13.7812ZM27.4482 13.7812C26.3232 13.7812 25.4132 14.6912 25.4132 15.8162C25.4132 16.9412 26.3232 17.8512 27.4482 17.8512C28.5732 17.8512 29.4832 16.9412 29.4832 15.8162C29.4832 14.6912 28.5695 13.7812 27.4482 13.7812Z" fill="#0079C8"/>
<path fill-rule="evenodd" clip-rule="evenodd" d="M18.2417 8.21625C18.3896 8.86227 17.9858 9.50589 17.3398 9.65383C15.9787 9.96551 15.0543 10.2764 14.2569 10.7022C13.4636 11.1259 12.735 11.6958 11.8076 12.6014C11.3334 13.0645 10.5737 13.0555 10.1107 12.5813C9.64763 12.1071 9.65664 11.3474 10.1308 10.8844C11.148 9.89106 12.0599 9.1547 13.1264 8.58518C14.1887 8.01789 15.3434 7.64886 16.8041 7.31438C17.4501 7.16645 18.0938 7.57023 18.2417 8.21625ZM23.4948 8.22506C23.6379 7.57795 24.2785 7.16934 24.9256 7.31241C26.3554 7.62853 27.4944 7.98833 28.5586 8.55658C29.6233 9.1251 30.5514 9.86933 31.6007 10.8776C32.0786 11.3368 32.0938 12.0965 31.6346 12.5744C31.1754 13.0522 30.4157 13.0674 29.9379 12.6082C28.9713 11.6794 28.2232 11.0982 27.4281 10.6737C26.6325 10.2488 25.728 9.94777 24.4075 9.65582C23.7604 9.51275 23.3518 8.87218 23.4948 8.22506Z" fill="#0079C8"/>
</svg>
