<svg width="40" height="40" viewBox="0 0 40 40" fill="none" xmlns="http://www.w3.org/2000/svg">
<path fill-rule="evenodd" clip-rule="evenodd" d="M40 20C40 31.0462 31.0462 40 20 40C8.95375 40 0 31.0462 0 20C0 8.95375 8.9525 0 20 0C31.0475 0 40 8.9525 40 20ZM10 27C10 26.4477 10.4477 26 11 26H29C29.5523 26 30 26.4477 30 27C30 27.5523 29.5523 28 29 28H11C10.4477 28 10 27.5523 10 27ZM2.37125 20C2.37125 10.2625 10.2662 2.37125 20 2.37125C29.7337 2.37125 37.6287 10.2625 37.6287 20C37.6287 29.7375 29.7375 37.6287 20 37.6287C10.2625 37.6287 2.37125 29.7375 2.37125 20ZM13.2188 13.7812C12.0938 13.7812 11.1838 14.6912 11.1838 15.8162C11.1838 16.9412 12.0938 17.8512 13.2188 17.8512C14.3438 17.8512 15.2537 16.9412 15.2537 15.8162C15.2537 14.6912 14.3438 13.7812 13.2188 13.7812ZM24.7463 15.8162C24.7463 14.6912 25.6562 13.7812 26.7812 13.7812C27.9025 13.7812 28.8162 14.6912 28.8162 15.8162C28.8162 16.9412 27.9062 17.8512 26.7812 17.8512C25.6562 17.8512 24.7463 16.9412 24.7463 15.8162Z" fill="#BDC3C9"/>
</svg>
