<svg width="21" height="20" viewBox="0 0 21 20" fill="none" xmlns="http://www.w3.org/2000/svg">
<path d="M9.44527 0.146447C9.64054 -0.0488154 9.95712 -0.0488157 10.1524 0.146446C10.3476 0.341709 10.3476 0.658291 10.1524 0.853553L0.853927 10.152C0.658665 10.3473 0.342082 10.3473 0.14682 10.152C-0.0484422 9.95675 -0.0484422 9.64016 0.14682 9.4449L9.44527 0.146447Z" fill="white"/>
<path d="M0.146634 10.1464C-0.0486284 9.95118 -0.0486288 9.63459 0.146633 9.43933C0.341895 9.24407 0.658478 9.24407 0.85374 9.43933L10.1522 18.7378C10.3475 18.9331 10.3475 19.2496 10.1522 19.4449C9.95693 19.6402 9.64035 19.6402 9.44509 19.4449L0.146634 10.1464Z" fill="white"/>
<path d="M0 9.79289C0 9.51675 0.223858 9.29289 0.5 9.29289H20.5C20.7761 9.29289 21 9.51675 21 9.79289C21 10.069 20.7761 10.2929 20.5 10.2929H0.5C0.223857 10.2929 0 10.069 0 9.79289Z" fill="white"/>
</svg>
