<svg width="24" height="24" viewBox="0 0 24 24" fill="none" xmlns="http://www.w3.org/2000/svg">
<path d="M15.488 18.9919C15.4571 19.1897 15.3441 19.3983 15.2106 19.5521C14.399 20.4418 13.423 20.969 12.2519 20.991C11.728 21.002 11.1835 21.0239 10.6801 20.9031C9.34464 20.6065 8.58443 19.3873 8.8002 17.9595C9.057 16.235 9.34464 14.5326 9.62204 12.8191C9.70426 12.3029 9.80697 11.7867 9.8686 11.2704C9.89944 11.0837 9.8789 10.875 9.84806 10.6993C9.78643 10.3478 9.6221 10.194 9.30362 10.1391C9.12899 10.1171 8.95429 10.1281 8.78996 10.0842C8.58449 10.0183 8.34823 9.94143 8.18384 9.80966C7.8962 9.57896 7.95789 9.1287 8.28661 8.9749C8.45094 8.88698 8.65641 8.84312 8.84135 8.84312C9.57077 8.83211 10.3104 8.84312 11.0295 8.84312H13.2177C13.7416 8.84312 14.0087 9.12869 14.0807 9.68883C14.1525 10.249 13.9676 10.7763 13.8752 11.3145C13.6081 12.9291 13.3204 14.5327 13.0534 16.1363C12.9609 16.6855 12.8684 17.2347 12.7863 17.7949C12.7657 17.9597 12.776 18.1463 12.7863 18.3112C12.8787 19.025 13.2588 19.2887 13.8957 19.1129C14.0909 19.0581 14.2656 18.9372 14.4505 18.8384C14.6252 18.7505 14.7998 18.6297 14.9847 18.5528C15.303 18.4208 15.5598 18.6405 15.488 18.9919Z" fill="white"/>
<path d="M14.7501 5.25004C14.7501 6.4927 13.7427 7.50007 12.5001 7.50007C11.2574 7.50007 10.25 6.4927 10.25 5.25004C10.25 4.00738 11.2574 3 12.5001 3C13.7427 3 14.7501 4.00738 14.7501 5.25004Z" fill="white"/>
</svg>
